name analog
datacolumns 19
datarows 79
range 0.4125000000000002 0.45150000000000023
endheader
time	ground_force_vx	ground_force_vy	ground_force_vz	ground_force_px	ground_force_py	ground_force_pz	l_ground_force_vx	l_ground_force_vy	l_ground_force_vz	l_ground_force_px	l_ground_force_py	l_ground_force_pz	ground_torque_x	ground_torque_y	ground_torque_z	l_ground_torque_x	l_ground_torque_y	l_ground_torque_z
0.4125000000000002	-0.0	-0.0	-0.0	8.552596092224121	-4.863408088684082	-770.6845703125	-0.0	-0.0	-0.0	-0.0	-0.0	-0.0	-0.0	-0.0	-0.0	-0.0	-0.0	-0.0
0.41300000000000014	-0.0	-0.0	-0.0	8.806702613830566	-5.946621417999268	-773.5635986328125	-0.0	-0.0	-0.0	-0.0	-0.0	-0.0	-0.0	-0.0	-0.0	-0.0	-0.0	-0.0
0.4135000000000002	-0.0	-0.0	-0.0	9.04935073852539	-7.255622863769531	-776.5435180664062	-0.0	-0.0	-0.0	-0.0	-0.0	-0.0	-0.0	-0.0	-0.0	-0.0	-0.0	-0.0
0.41400000000000015	-0.0	-0.0	-0.0	8.881827354431152	-8.467388153076172	-779.962890625	-0.0	-0.0	-0.0	-0.0	-0.0	-0.0	-0.0	-0.0	-0.0	-0.0	-0.0	-0.0
0.4145000000000002	-0.0	-0.0	-0.0	8.87121868133545	-9.487165451049805	-780.9794921875	-0.0	-0.0	-0.0	-0.0	-0.0	-0.0	-0.0	-0.0	-0.0	-0.0	-0.0	-0.0
0.41500000000000015	-0.0	-0.0	-0.0	8.16783618927002	-10.185683250427246	-783.764404296875	-0.0	-0.0	-0.0	-0.0	-0.0	-0.0	-0.0	-0.0	-0.0	-0.0	-0.0	-0.0
0.4155000000000002	-0.0	-0.0	-0.0	9.000386238098145	-11.750329971313477	-785.8446044921875	-0.0	-0.0	-0.0	-0.0	-0.0	-0.0	-0.0	-0.0	-0.0	-0.0	-0.0	-0.0
0.41600000000000015	-0.0	-0.0	-0.0	8.345965385437012	-12.631845474243164	-787.6290893554688	-0.0	-0.0	-0.0	-0.0	-0.0	-0.0	-0.0	-0.0	-0.0	-0.0	-0.0	-0.0
0.4165000000000002	-0.0	-0.0	-0.0	8.588835716247559	-12.622625350952148	-790.8912353515625	-0.0	-0.0	-0.0	-0.0	-0.0	-0.0	-0.0	-0.0	-0.0	-0.0	-0.0	-0.0
0.41700000000000015	-0.0	-0.0	-0.0	8.702520370483398	-12.438182830810549	-791.5734252929688	-0.0	-0.0	-0.0	-0.0	-0.0	-0.0	-0.0	-0.0	-0.0	-0.0	-0.0	-0.0
0.4175000000000002	-0.0	-0.0	-0.0	8.896577835083008	-11.847240447998049	-791.6074829101562	-0.0	-0.0	-0.0	-0.0	-0.0	-0.0	-0.0	-0.0	-0.0	-0.0	-0.0	-0.0
0.41800000000000015	-0.0	-0.0	-0.0	8.807435035705566	-11.522205352783203	-791.3162841796875	-0.0	-0.0	-0.0	-0.0	-0.0	-0.0	-0.0	-0.0	-0.0	-0.0	-0.0	-0.0
0.4185000000000002	-0.0	-0.0	-0.0	8.174935340881348	-10.744261741638184	-789.7745361328125	-0.0	-0.0	-0.0	-0.0	-0.0	-0.0	-0.0	-0.0	-0.0	-0.0	-0.0	-0.0
0.41900000000000015	-0.0	-0.0	-0.0	8.199568748474121	-10.266435623168944	-787.8484497070312	-0.0	-0.0	-0.0	-0.0	-0.0	-0.0	-0.0	-0.0	-0.0	-0.0	-0.0	-0.0
0.4195000000000002	-0.0	-0.0	-0.0	7.956394195556641	-9.910118103027344	-785.8551635742188	-0.0	-0.0	-0.0	-0.0	-0.0	-0.0	-0.0	-0.0	-0.0	-0.0	-0.0	-0.0
0.42000000000000015	-0.0	-0.0	-0.0	8.086833953857422	-8.385467529296875	-786.0162353515625	-0.0	-0.0	-0.0	-0.0	-0.0	-0.0	-0.0	-0.0	-0.0	-0.0	-0.0	-0.0
0.4205000000000002	-0.0	-0.0	-0.0	7.915696144104004	-7.802380084991455	-782.1307373046875	-0.0	-0.0	-0.0	-0.0	-0.0	-0.0	-0.0	-0.0	-0.0	-0.0	-0.0	-0.0
0.42100000000000015	-0.0	-0.0	-0.0	8.355183601379395	-6.945536136627197	-779.5366821289062	-0.0	-0.0	-0.0	-0.0	-0.0	-0.0	-0.0	-0.0	-0.0	-0.0	-0.0	-0.0
0.4215000000000002	-0.0	-0.0	-0.0	8.314130783081055	-6.506519317626953	-777.563232421875	-0.0	-0.0	-0.0	-0.0	-0.0	-0.0	-0.0	-0.0	-0.0	-0.0	-0.0	-0.0
0.42200000000000015	-0.0	-0.0	-0.0	8.118156433105469	-5.514400482177734	-775.0654296875	-0.0	-0.0	-0.0	-0.0	-0.0	-0.0	-0.0	-0.0	-0.0	-0.0	-0.0	-0.0
0.4225000000000002	-0.0	-0.0	-0.0	8.022462844848633	-4.450042247772217	-772.7576904296875	-0.0	-0.0	-0.0	-0.0	-0.0	-0.0	-0.0	-0.0	-0.0	-0.0	-0.0	-0.0
0.42300000000000015	-0.0	-0.0	-0.0	8.831840515136719	-4.522007465362549	-770.3576049804688	-0.0	-0.0	-0.0	-0.0	-0.0	-0.0	-0.0	-0.0	-0.0	-0.0	-0.0	-0.0
0.4235000000000002	-0.0	-0.0	-0.0	9.70034885406494	-3.869416475296021	-767.1068115234375	-0.0	-0.0	-0.0	-0.0	-0.0	-0.0	-0.0	-0.0	-0.0	-0.0	-0.0	-0.0
0.42400000000000015	-0.0	-0.0	-0.0	10.038615226745604	-2.9178051948547363	-764.98779296875	-0.0	-0.0	-0.0	-0.0	-0.0	-0.0	-0.0	-0.0	-0.0	-0.0	-0.0	-0.0
0.4245000000000002	-0.0	-0.0	-0.0	10.17459487915039	-2.5379202365875244	-763.3893432617188	-0.0	-0.0	-0.0	-0.0	-0.0	-0.0	-0.0	-0.0	-0.0	-0.0	-0.0	-0.0
0.42500000000000016	-0.0	-0.0	-0.0	10.72434425354004	-2.223971366882324	-761.287841796875	-0.0	-0.0	-0.0	-0.0	-0.0	-0.0	-0.0	-0.0	-0.0	-0.0	-0.0	-0.0
0.4255000000000002	-0.0	-0.0	-0.0	11.791118621826172	-2.2049825191497803	-760.5651245117188	-0.0	-0.0	-0.0	-0.0	-0.0	-0.0	-0.0	-0.0	-0.0	-0.0	-0.0	-0.0
0.42600000000000016	-0.0	-0.0	-0.0	12.36122703552246	-2.2746806144714355	-757.5856323242188	-0.0	-0.0	-0.0	-0.0	-0.0	-0.0	-0.0	-0.0	-0.0	-0.0	-0.0	-0.0
0.4265000000000002	-0.0	-0.0	-0.0	12.938928604125977	-2.033669948577881	-756.341552734375	-0.0	-0.0	-0.0	-0.0	-0.0	-0.0	-0.0	-0.0	-0.0	-0.0	-0.0	-0.0
0.42700000000000016	-0.0	-0.0	-0.0	13.712239265441896	-2.5648229122161865	-758.9046020507812	-0.0	-0.0	-0.0	-0.0	-0.0	-0.0	-0.0	-0.0	-0.0	-0.0	-0.0	-0.0
0.4275000000000002	-0.0	-0.0	-0.0	14.184471130371094	-3.096574544906616	-761.091552734375	-0.0	-0.0	-0.0	-0.0	-0.0	-0.0	-0.0	-0.0	-0.0	-0.0	-0.0	-0.0
0.42800000000000016	-0.0	-0.0	-0.0	14.342480659484863	-3.2036561965942383	-763.938232421875	-0.0	-0.0	-0.0	-0.0	-0.0	-0.0	-0.0	-0.0	-0.0	-0.0	-0.0	-0.0
0.4285000000000002	-0.0	-0.0	-0.0	13.445712089538574	-3.903332233428955	-767.3782958984375	-0.0	-0.0	-0.0	-0.0	-0.0	-0.0	-0.0	-0.0	-0.0	-0.0	-0.0	-0.0
0.42900000000000016	-0.0	-0.0	-0.0	12.667892456054688	-3.882036209106445	-767.7384033203125	-0.0	-0.0	-0.0	-0.0	-0.0	-0.0	-0.0	-0.0	-0.0	-0.0	-0.0	-0.0
0.4295000000000002	-0.0	-0.0	-0.0	12.353198051452637	-5.436954498291016	-773.7273559570312	-0.0	-0.0	-0.0	-0.0	-0.0	-0.0	-0.0	-0.0	-0.0	-0.0	-0.0	-0.0
0.43000000000000016	-0.0	-0.0	-0.0	11.416207313537598	-5.817468166351318	-775.3304443359375	-0.0	-0.0	-0.0	-0.0	-0.0	-0.0	-0.0	-0.0	-0.0	-0.0	-0.0	-0.0
0.4305000000000002	-0.0	-0.0	-0.0	9.969009399414062	-6.395900249481201	-779.2936401367188	-0.0	-0.0	-0.0	-0.0	-0.0	-0.0	-0.0	-0.0	-0.0	-0.0	-0.0	-0.0
0.43100000000000016	-0.0	-0.0	-0.0	8.652664184570312	-6.4181437492370605	-784.3206176757812	-0.0	-0.0	-0.0	-0.0	-0.0	-0.0	-0.0	-0.0	-0.0	-0.0	-0.0	-0.0
0.4315000000000002	-0.0	-0.0	-0.0	7.939735412597656	-6.751993656158447	-784.41259765625	-0.0	-0.0	-0.0	-0.0	-0.0	-0.0	-0.0	-0.0	-0.0	-0.0	-0.0	-0.0
0.43200000000000016	-0.0	-0.0	-0.0	6.980767250061035	-7.397823333740234	-786.8848876953125	-0.0	-0.0	-0.0	-0.0	-0.0	-0.0	-0.0	-0.0	-0.0	-0.0	-0.0	-0.0
0.4325000000000002	-0.0	-0.0	-0.0	6.311758041381836	-7.397823333740234	-790.2402954101562	-0.0	-0.0	-0.0	-0.0	-0.0	-0.0	-0.0	-0.0	-0.0	-0.0	-0.0	-0.0
0.43300000000000016	-0.0	-0.0	-0.0	5.999703884124756	-7.4647698402404785	-791.9173583984375	-0.0	-0.0	-0.0	-0.0	-0.0	-0.0	-0.0	-0.0	-0.0	-0.0	-0.0	-0.0
0.4335000000000002	-0.0	-0.0	-0.0	5.820809364318848	-7.152538776397705	-794.1293334960938	-0.0	-0.0	-0.0	-0.0	-0.0	-0.0	-0.0	-0.0	-0.0	-0.0	-0.0	-0.0
0.43400000000000016	-0.0	-0.0	-0.0	5.262444972991943	-6.751871585845947	-796.8612670898438	-0.0	-0.0	-0.0	-0.0	-0.0	-0.0	-0.0	-0.0	-0.0	-0.0	-0.0	-0.0
0.4345000000000002	-0.0	-0.0	-0.0	4.973806858062744	-6.348937511444092	-799.333251953125	-0.0	-0.0	-0.0	-0.0	-0.0	-0.0	-0.0	-0.0	-0.0	-0.0	-0.0	-0.0
0.43500000000000016	-0.0	-0.0	-0.0	4.77196741104126	-5.702757835388184	-799.9525146484375	-0.0	-0.0	-0.0	-0.0	-0.0	-0.0	-0.0	-0.0	-0.0	-0.0	-0.0	-0.0
0.4355000000000002	-0.0	-0.0	-0.0	4.484221458435059	-5.127782344818115	-801.2935791015625	-0.0	-0.0	-0.0	-0.0	-0.0	-0.0	-0.0	-0.0	-0.0	-0.0	-0.0	-0.0
0.43600000000000017	-0.0	-0.0	-0.0	4.549736022949219	-4.056515693664551	-800.1505737304688	-0.0	-0.0	-0.0	-0.0	-0.0	-0.0	-0.0	-0.0	-0.0	-0.0	-0.0	-0.0
0.4365000000000002	-0.0	-0.0	-0.0	4.528042316436768	-3.3002588748931885	-801.365234375	-0.0	-0.0	-0.0	-0.0	-0.0	-0.0	-0.0	-0.0	-0.0	-0.0	-0.0	-0.0
0.43700000000000017	-0.0	-0.0	-0.0	4.06044864654541	-2.428118705749512	-802.5960083007812	-0.0	-0.0	-0.0	-0.0	-0.0	-0.0	-0.0	-0.0	-0.0	-0.0	-0.0	-0.0
0.4375000000000002	-0.0	-0.0	-0.0	3.279248714447021	-2.222165107727051	-803.6428833007812	-0.0	-0.0	-0.0	-0.0	-0.0	-0.0	-0.0	-0.0	-0.0	-0.0	-0.0	-0.0
0.43800000000000017	-0.0	-0.0	-0.0	2.1906371116638184	-2.2744836807250977	-808.8538818359375	-0.0	-0.0	-0.0	-0.0	-0.0	-0.0	-0.0	-0.0	-0.0	-0.0	-0.0	-0.0
0.4385000000000002	-0.0	-0.0	-0.0	1.3631819486618042	-2.499276876449585	-811.2542724609375	-0.0	-0.0	-0.0	-0.0	-0.0	-0.0	-0.0	-0.0	-0.0	-0.0	-0.0	-0.0
0.43900000000000017	-0.0	-0.0	-0.0	0.1997403800487518	-2.7417421340942383	-812.2139282226562	-0.0	-0.0	-0.0	-0.0	-0.0	-0.0	-0.0	-0.0	-0.0	-0.0	-0.0	-0.0
0.4395000000000002	-0.0	-0.0	-0.0	-0.47150719165802	-2.334424495697021	-813.45751953125	-0.0	-0.0	-0.0	-0.0	-0.0	-0.0	-0.0	-0.0	-0.0	-0.0	-0.0	-0.0
0.44000000000000017	-0.0	-0.0	-0.0	-2.077528238296509	-2.5802738666534424	-814.2653198242188	-0.0	-0.0	-0.0	-0.0	-0.0	-0.0	-0.0	-0.0	-0.0	-0.0	-0.0	-0.0
0.4405000000000002	-0.0	-0.0	-0.0	-2.645644187927246	-2.2541258335113525	-814.0797119140625	-0.0	-0.0	-0.0	-0.0	-0.0	-0.0	-0.0	-0.0	-0.0	-0.0	-0.0	-0.0
0.44100000000000017	-0.0	-0.0	-0.0	-3.793989419937134	-2.1913158893585205	-812.8335571289062	-0.0	-0.0	-0.0	-0.0	-0.0	-0.0	-0.0	-0.0	-0.0	-0.0	-0.0	-0.0
0.4415000000000002	-0.0	-0.0	-0.0	-4.187499523162842	-1.2478256225585938	-811.3372802734375	-0.0	-0.0	-0.0	-0.0	-0.0	-0.0	-0.0	-0.0	-0.0	-0.0	-0.0	-0.0
0.44200000000000017	-0.0	-0.0	-0.0	-4.99578857421875	-1.022169828414917	-808.7218017578125	-0.0	-0.0	-0.0	-0.0	-0.0	-0.0	-0.0	-0.0	-0.0	-0.0	-0.0	-0.0
0.4425000000000002	-0.0	-0.0	-0.0	-4.522953033447266	-0.8616600632667542	-804.190673828125	-0.0	-0.0	-0.0	-0.0	-0.0	-0.0	-0.0	-0.0	-0.0	-0.0	-0.0	-0.0
0.44300000000000017	-0.0	-0.0	-0.0	-4.371315002441406	-0.3088204562664032	-802.0964965820312	-0.0	-0.0	-0.0	-0.0	-0.0	-0.0	-0.0	-0.0	-0.0	-0.0	-0.0	-0.0
0.4435000000000002	-0.0	-0.0	-0.0	-3.520540237426758	0.1369674503803253	-800.60302734375	-0.0	-0.0	-0.0	-0.0	-0.0	-0.0	-0.0	-0.0	-0.0	-0.0	-0.0	-0.0
0.4440000000000002	-0.0	-0.0	-0.0	-2.717491149902344	-0.1782608032226562	-796.5022583007812	-0.0	-0.0	-0.0	-0.0	-0.0	-0.0	-0.0	-0.0	-0.0	-0.0	-0.0	-0.0
0.44450000000000023	-0.0	-0.0	-0.0	-2.2855591773986816	0.0481257550418376	-795.1456909179688	-0.0	-0.0	-0.0	-0.0	-0.0	-0.0	-0.0	-0.0	-0.0	-0.0	-0.0	-0.0
0.4450000000000002	-0.0	-0.0	-0.0	-1.0352166891098022	0.4103742837905884	-793.838134765625	-0.0	-0.0	-0.0	-0.0	-0.0	-0.0	-0.0	-0.0	-0.0	-0.0	-0.0	-0.0
0.44550000000000023	-0.0	-0.0	-0.0	-0.4537941515445709	0.0765161141753196	-790.416748046875	-0.0	-0.0	-0.0	-0.0	-0.0	-0.0	-0.0	-0.0	-0.0	-0.0	-0.0	-0.0
0.4460000000000002	-0.0	-0.0	-0.0	0.2110091745853424	-0.6847574710845947	-789.7907104492188	-0.0	-0.0	-0.0	-0.0	-0.0	-0.0	-0.0	-0.0	-0.0	-0.0	-0.0	-0.0
0.44650000000000023	-0.0	-0.0	-0.0	1.1109710931777954	-1.515216827392578	-787.7514038085938	-0.0	-0.0	-0.0	-0.0	-0.0	-0.0	-0.0	-0.0	-0.0	-0.0	-0.0	-0.0
0.44700000000000023	-0.0	-0.0	-0.0	1.4187445640563965	-2.259901523590088	-789.5166625976562	-0.0	-0.0	-0.0	-0.0	-0.0	-0.0	-0.0	-0.0	-0.0	-0.0	-0.0	-0.0
0.44750000000000023	-0.0	-0.0	-0.0	2.279314517974853	-3.49614691734314	-792.7299194335938	-0.0	-0.0	-0.0	-0.0	-0.0	-0.0	-0.0	-0.0	-0.0	-0.0	-0.0	-0.0
0.44800000000000023	-0.0	-0.0	-0.0	2.011837720870972	-5.109611034393311	-795.5987548828125	-0.0	-0.0	-0.0	-0.0	-0.0	-0.0	-0.0	-0.0	-0.0	-0.0	-0.0	-0.0
0.44850000000000023	-0.0	-0.0	-0.0	2.1011834144592285	-6.417388916015625	-801.169921875	-0.0	-0.0	-0.0	-0.0	-0.0	-0.0	-0.0	-0.0	-0.0	-0.0	-0.0	-0.0
0.44900000000000023	-0.0	-0.0	-0.0	1.7545748949050903	-7.17011308670044	-806.2711181640625	-0.0	-0.0	-0.0	-0.0	-0.0	-0.0	-0.0	-0.0	-0.0	-0.0	-0.0	-0.0
0.44950000000000023	-0.0	-0.0	-0.0	1.2985954284667969	-7.5164031982421875	-811.7241821289062	-0.0	-0.0	-0.0	-0.0	-0.0	-0.0	-0.0	-0.0	-0.0	-0.0	-0.0	-0.0
0.45000000000000023	-0.0	-0.0	-0.0	-0.0290726497769355	-8.36890697479248	-818.2808837890625	-0.0	-0.0	-0.0	-0.0	-0.0	-0.0	-0.0	-0.0	-0.0	-0.0	-0.0	-0.0
0.45050000000000023	-0.0	-0.0	-0.0	-1.4273681640625	-7.773963928222656	-819.3352661132812	-0.0	-0.0	-0.0	-0.0	-0.0	-0.0	-0.0	-0.0	-0.0	-0.0	-0.0	-0.0
0.45100000000000023	-0.0	-0.0	-0.0	-2.328066349029541	-7.297735214233398	-822.5995483398438	-0.0	-0.0	-0.0	-0.0	-0.0	-0.0	-0.0	-0.0	-0.0	-0.0	-0.0	-0.0
0.45150000000000023	-0.0	-0.0	-0.0	-3.3929805755615234	-6.734959125518799	-823.6156005859375	-0.0	-0.0	-0.0	-0.0	-0.0	-0.0	-0.0	-0.0	-0.0	-0.0	-0.0	-0.0
